# xmcd
# 
# Track frame offsets:
#     225
#     14756
#     29802
#     45413
#     60666
#     90094
#     100734
#     122174
#     148161
#     176446
#     208583
#     238983
# 
# Disc length: 3580
# 
# Revision: 0
# Processed by: cddbd v1.5.2PL0 Copyright (c) Steve Scherf et al.
# Submitted via: fre:ac v1.0.31
# 
DISCID=a70df90c
DTITLE=長津宏文 - 地下牢の歌
DYEAR=2018
DGENRE=Folk
TTITLE0=旅は旅とて
TTITLE1=アイコス時代
TTITLE2=オヤジの遺言
TTITLE3=誕生日
TTITLE4=よォ！あん時の若いの
TTITLE5=岩ガキを食べよう
TTITLE6=すごろく
TTITLE7=花咲く曲がり角 (佐々木幸男/いなむら一志)
TTITLE8=アンブレーラ
TTITLE9=だだっぴろな空
TTITLE10=僕はキミを覚えてる
TTITLE11=地下牢の唄
EXTD=
EXTT0=
EXTT1=
EXTT2=
EXTT3=
EXTT4=
EXTT5=
EXTT6=
EXTT7=
EXTT8=
EXTT9=
EXTT10=
EXTT11=
PLAYORDER=
